<svg width="135" height="667" viewBox="0 0 135 667" fill="none" xmlns="http://www.w3.org/2000/svg">
<path d="M2.99999 128.5L82.75 128L18.75 90L18.75 64L80 26L3 26L3 -27.75L178 -27.75L178 20.75L84.75 77.75L178 133.25L178 181.75L2.99999 182.25L2.99999 128.5ZM71.5 354.525C70.6667 354.525 66.25 354.275 58.25 353.775L58.25 258.775C53.0833 260.775 49.0833 264.109 46.25 268.775C43.5833 273.442 42.25 279.275 42.25 286.275C42.25 292.275 43 297.275 44.5 301.275C46 305.442 48.5833 309.942 52.25 314.775L22.5 344.275C7.83332 330.942 0.499984 311.025 0.499986 284.525C0.499986 268.025 3.49999 253.525 9.49999 241.025C15.6667 228.525 24.1667 218.859 35 212.025C45.8333 205.192 58 201.775 71.5 201.775C85.1667 201.775 97.3333 205.109 108 211.775C118.833 218.609 127.25 227.859 133.25 239.525C139.25 251.359 142.25 264.609 142.25 279.275C142.25 293.109 139.5 305.692 134 317.025C128.5 328.525 120.417 337.609 109.75 344.275C99.0833 351.109 86.3333 354.525 71.5 354.525ZM103.75 279.775C103.75 273.942 102.167 269.109 99 265.275C95.8333 261.442 91.3333 258.942 85.5 257.775L85.5 301.775C91.1667 300.609 95.5833 298.109 98.75 294.275C102.083 290.442 103.75 285.609 103.75 279.775ZM142.25 467.355C142.25 484.189 137.167 497.689 127 507.855C116.833 518.189 101.5 523.355 81 523.355L2.99998 523.355L2.99998 466.855L71.25 466.855C86.9166 466.855 94.75 461.272 94.75 450.105C94.75 443.772 92.5 438.605 88 434.605C83.6666 430.772 76.75 428.855 67.25 428.855L2.99998 428.855L2.99998 372.355L139.75 372.355L139.75 426.105L126.25 426.105C131.583 431.439 135.583 437.605 138.25 444.605C140.917 451.605 142.25 459.189 142.25 467.355ZM139.75 697.393L2.99997 697.393L2.99997 643.643L16 643.643C10.8333 638.643 6.91664 632.809 4.24997 626.143C1.74997 619.476 0.499971 612.393 0.499972 604.893C0.499972 587.559 5.74997 573.643 16.25 563.143C26.9166 552.643 42.9166 547.393 64.25 547.393L139.75 547.393L139.75 603.893L74 603.893C64.6666 603.893 58 605.393 54 608.393C50 611.393 48 615.809 48 621.643C48 627.143 50.1666 631.726 54.5 635.393C59 639.059 66 640.893 75.5 640.893L139.75 640.893L139.75 697.393Z" fill="#FEF2F6"/>
</svg>
